# xmcd
#
# Track frame offsets: 
#        150
#        16375
#        38963
#        60061
#        75421
#        96007
#        112678
#        131541
#        147857
#        165800
#        187249
#        210906
#        234650
#        250961
#        264140
#        283771
#
# Disc length: 4049 seconds
#
# Revision: 0
# Processed by: cddbd v1.5.2PL0 Copyright (c) Steve Scherf et al.
# Submitted via: ExactAudioCopy v0.99pb5
#
DISCID=c40fcf10
DTITLE=Various Artist - The Best of Anzenchitai and Koji Tamaki's Cover Collect
DTITLE=ions 2
DYEAR=2010
DGENRE=Pop
TTITLE0=拒絕再玩
TTITLE1=愈想愈無謂
TTITLE2=夏日之神話
TTITLE3=情不禁
TTITLE4=想妳的舊名字
TTITLE5=一顆心碎了
TTITLE6=細想
TTITLE7=痴情意外
TTITLE8=月蝕
TTITLE9=一夜傾情
TTITLE10=藍月亮
TTITLE11=多一些可以麼
TTITLE12=花花公子
TTITLE13=夜深情真
TTITLE14=我懷念著一片雲彩
TTITLE15=誰最愛你
EXTD=
EXTT0=
EXTT1=
EXTT2=
EXTT3=
EXTT4=
EXTT5=
EXTT6=
EXTT7=
EXTT8=
EXTT9=
EXTT10=
EXTT11=
EXTT12=
EXTT13=
EXTT14=
EXTT15=
PLAYORDER=
